<?xml version="1.0" encoding="UTF-8" standalone="no"?>
<!DOCTYPE svg PUBLIC "-//W3C//DTD SVG 1.1//EN" "http://www.w3.org/Graphics/SVG/1.1/DTD/svg11.dtd">
<svg version="1.1" xmlns="http://www.w3.org/2000/svg" xmlns:xlink="http://www.w3.org/1999/xlink" preserveAspectRatio="xMidYMid meet" viewBox="0 0 640 640" width="640" height="640"><defs><path d="M10.6 63.03C4.74 63.03 0 67.78 0 73.63C0 122.9 0 517.1 0 566.37C0 572.22 4.74 576.97 10.6 576.97C72.48 576.97 567.52 576.97 629.41 576.97C635.26 576.97 640 572.23 640 566.37C640 517.1 640 122.9 640 73.63C640 67.78 635.26 63.03 629.4 63.03C505.64 63.03 72.48 63.03 10.6 63.03ZM577.64 110.4C396.98 110.4 296.61 110.4 276.54 110.4C276.43 110.4 276.32 110.4 276.21 110.4C276.1 110.4 275.99 110.4 275.88 110.4C261.65 110.4 190.47 110.4 62.36 110.4L36.18 84.22L603.82 84.22L577.64 110.4ZM289.16 350.56C284.42 342.35 246.5 276.67 241.76 268.46C239.87 265.18 236.37 263.16 232.58 263.16C228.8 263.16 225.3 265.19 223.41 268.46C220.65 273.25 198.55 311.51 195.79 316.3C176.94 296.08 166.33 269.44 166.33 241.46C166.33 180.93 215.53 131.68 276.04 131.59C276.08 131.59 276.34 131.59 276.37 131.59C336.88 131.69 386.08 180.93 386.08 241.46C386.08 297.4 344 344.12 289.16 350.56ZM512.86 131.6L467.67 263.8C431.33 246.35 411.14 236.66 407.1 234.72C404.9 191.56 381.72 153.85 347.59 131.6C369.62 131.6 424.72 131.6 512.86 131.6ZM154.72 429.83L232.59 294.95L310.46 429.83L154.72 429.83ZM68.57 158.65L68.57 131.6C150.32 131.6 195.74 131.6 204.83 131.6C174.42 151.42 152.71 183.52 146.78 220.81C136.35 212.52 110.28 191.8 68.57 158.65ZM68.57 269.63L68.57 185.72C114.58 222.29 140.15 242.6 145.26 246.67C146.12 268.4 152.32 289.31 163.1 307.7C150.5 302.62 118.98 289.93 68.57 269.63ZM164.76 370.06L68.57 370.06L68.57 292.47L182.96 338.54L164.76 370.06ZM128.64 432.61L68.57 466.36L68.57 391.25L152.52 391.25L128.64 432.61ZM328.81 451.02C332.6 451.02 336.09 449 337.99 445.72C339.88 442.44 339.88 438.4 337.99 435.13C334.24 428.64 304.27 376.72 300.52 370.24C315.21 367.48 329.01 362.29 341.5 355.08C346.08 358.78 368.99 377.25 410.21 410.51C374.98 445.74 355.41 465.31 351.49 469.23C349.5 471.21 348.39 473.91 348.39 476.72C348.39 479.53 349.5 482.23 351.49 484.21C353.1 485.83 361.17 493.89 375.69 508.41L68.57 508.41L68.57 490.66L139.14 451.02C252.94 451.02 316.17 451.02 328.81 451.02ZM505.84 344.86L571.44 410.45L571.44 508.41L405.65 508.41L373.97 476.72L505.84 344.86ZM498.35 322.38C493.48 327.25 469.12 351.61 425.29 395.44C385.9 363.67 364.01 346.02 359.64 342.49C384.8 321.66 401.99 291.66 406.22 257.8C417.24 263.09 472.31 289.53 571.44 337.14L571.44 380.48L513.34 322.38C506.1 319.63 501.11 319.63 498.35 322.38ZM535.26 131.59L571.43 131.59L571.43 313.63L486.91 273.04L535.26 131.59ZM47.37 125.39L47.37 514.61L21.19 540.79L21.19 99.21L47.37 125.39ZM62.36 529.6L577.64 529.6L603.82 555.78L36.18 555.78L62.36 529.6ZM592.63 514.61L592.63 125.39L618.81 99.21L618.81 540.79L592.63 514.61Z" id="bZnC5490"></path></defs><g><g><g><use xlink:href="#bZnC5490" opacity="1" fill="#ffffff" fill-opacity="1"></use><g><use xlink:href="#bZnC5490" opacity="1" fill-opacity="0" stroke="#000000" stroke-width="1" stroke-opacity="0"></use></g></g></g></g></svg>