<?xml version="1.0" encoding="UTF-8" standalone="no"?>
<!DOCTYPE svg PUBLIC "-//W3C//DTD SVG 1.1//EN" "http://www.w3.org/Graphics/SVG/1.1/DTD/svg11.dtd">
<svg version="1.1" xmlns="http://www.w3.org/2000/svg" xmlns:xlink="http://www.w3.org/1999/xlink" preserveAspectRatio="xMidYMid meet" viewBox="0 0 640 640" width="640" height="640"><defs><path d="M492.24 33.74C483.91 29.55 473.77 32.34 468.77 40.21C465.36 45.56 438.15 88.39 434.75 93.75C431.89 98.23 431.16 103.74 432.72 108.82C434.28 113.9 438 118.04 442.88 120.14C499.6 144.58 540.78 228.74 540.78 320.24C540.78 410.66 500.16 494.54 444.2 519.71C439.43 521.85 435.82 525.94 434.29 530.94C432.76 535.94 433.46 541.35 436.21 545.79C439.53 551.18 466.14 594.22 469.47 599.6C472.88 605.12 478.81 608.2 484.91 608.2C487.7 608.2 490.52 607.56 493.15 606.22C536.35 584.15 573.12 545.53 599.49 494.52C625.99 443.26 640 382.99 640 320.25C640 257.25 625.9 196.79 599.22 145.39C572.67 94.23 535.67 55.62 492.24 33.74ZM477.11 542.96C536.8 504.45 577.06 416.52 577.06 320.24C577.06 222.92 536.31 134.72 475.88 96.66C477.31 94.42 488.72 76.46 490.14 74.22C558.66 117.65 603.72 213.97 603.72 320.24C603.72 425.84 559.05 521.84 491.1 565.58C488.3 561.06 478.51 545.22 477.11 542.96Z" id="b11Wmy69pV"></path><path d="M428.91 140.23C424.87 137.14 419.71 135.89 414.71 136.77C409.7 137.66 405.3 140.61 402.57 144.91C399.24 150.15 372.61 192.06 369.28 197.3C364.51 204.81 365.88 214.66 372.52 220.57C397.15 242.53 412.45 280.93 412.45 320.77C412.45 359.86 398.27 396.64 374.51 419.16C368.27 425.08 367.04 434.57 371.57 441.88C374.85 447.18 401.13 489.61 404.41 494.91C407.14 499.31 411.61 502.34 416.7 503.23C417.74 503.42 418.79 503.5 419.84 503.5C423.89 503.5 427.86 502.15 431.08 499.6C481.57 459.7 511.71 392.85 511.71 320.77C511.71 247.41 480.76 179.92 428.91 140.23ZM409.74 434.59C434.36 405.37 448.74 363.94 448.74 320.77C448.74 276.12 433.6 233.85 407.66 204.55C409.08 202.31 420.45 184.42 421.87 182.19C455.7 215.92 475.43 266.26 475.43 320.77C475.43 374.03 456.43 423.59 423.82 457.33C421 452.78 411.15 436.87 409.74 434.59Z" id="aBsTY06IE"></path><path d="M298.15 108.3C288.83 115.64 242.23 152.37 158.35 218.48L136.18 218.48L123.06 218.48C99.82 218.48 86.91 218.48 84.33 218.48C37.83 218.48 0 264.02 0 320C0 375.98 37.83 421.52 84.33 421.52C86.91 421.52 99.82 421.52 123.06 421.52L136.18 421.52L158.35 421.52C242.23 487.63 288.83 524.36 298.15 531.71C301.41 534.28 305.38 535.6 309.38 535.6C312.07 535.6 314.78 535 317.29 533.78C323.55 530.75 327.52 524.41 327.52 517.46C327.52 477.97 327.52 162.03 327.52 122.54C327.52 115.59 323.55 109.25 317.29 106.22C311.04 103.19 303.6 103.99 298.15 108.3ZM84.33 385.24C57.84 385.24 36.28 355.97 36.28 320C36.28 284.03 57.84 254.76 84.33 254.76C85.7 254.76 92.56 254.76 104.91 254.76L104.91 385.24C92.56 385.24 85.7 385.24 84.33 385.24ZM175.87 389.13C172.67 386.61 168.72 385.24 164.64 385.24C163.08 385.24 155.26 385.24 141.2 385.24L141.2 254.76C155.26 254.76 163.08 254.76 164.64 254.76C168.71 254.76 172.67 253.38 175.87 250.86C183.56 244.8 222.02 214.49 291.23 159.94L291.23 480.06C222.02 425.5 183.56 395.19 175.87 389.13Z" id="a28Jz2647T"></path></defs><g><g><g><use xlink:href="#b11Wmy69pV" opacity="1" fill="#ffffff" fill-opacity="1"></use><g><use xlink:href="#b11Wmy69pV" opacity="1" fill-opacity="0" stroke="#000000" stroke-width="1" stroke-opacity="0"></use></g></g><g><use xlink:href="#aBsTY06IE" opacity="1" fill="#ffffff" fill-opacity="1"></use><g><use xlink:href="#aBsTY06IE" opacity="1" fill-opacity="0" stroke="#000000" stroke-width="1" stroke-opacity="0"></use></g></g><g><use xlink:href="#a28Jz2647T" opacity="1" fill="#ffffff" fill-opacity="1"></use><g><use xlink:href="#a28Jz2647T" opacity="1" fill-opacity="0" stroke="#000000" stroke-width="1" stroke-opacity="0"></use></g></g></g></g></svg>