<?xml version="1.0"?>
<svg xmlns="http://www.w3.org/2000/svg" id="Layer_1" enable-background="new 0 0 511.93 511.93" height="512px" viewBox="0 0 511.93 511.93" width="512px"><g><path d="m260.232 234.012c1.433 7.381 2.573 14.924 3.419 22.619 33.658 17.759 70.312 10.608 104.981-6.192 60.082-29.113 97.377-86.988 102.717-148.994.497-5.769-2.162-11.356-6.952-14.609-52.369-35.566-119.71-40.689-177.72-13.292 32.804 56.336 18.02 121.678-26.445 160.468z" data-original="#000000" class="active-path" data-old_color="#000000" fill="#FFFFFF"/><path d="m450.178 352.73c-57.319-21.428-115.405-33.441-172.977-35.819 1.139 17.353 1.149 35.35-.017 53.885-.554 8.816-8.15 15.52-16.972 14.965-8.819-.554-15.519-8.153-14.965-16.972 2.822-44.886-2.597-101.757-21.181-148.397-14.173-48.764-42.683-81.443-74.248-95.249-8.096-3.541-11.789-12.975-8.248-21.07 3.541-8.097 12.974-11.791 21.071-8.248 42.9 18.763 72.208 58.451 87.865 102.384 10.884-13.286 18.187-29.233 20.821-45.815 6.097-38.4-12.863-71.363-40.273-98.934-46.626-46.896-112.974-63.571-173.432-47.516-5.596 1.485-9.953 5.879-11.392 11.487-20.075 78.236 13.829 160.257 82.258 201.889 20.282 12.34 43.035 16.962 65.745 12.679 9.742 24.365 16.421 53.151 18.66 86.258-50.413 4.184-100.975 15.722-151.136 34.474-91.136 34.071-79.037 121.332 28.115 142.707 110.21 21.99 221.982 21.99 332.191 0 106.899-21.325 119.444-108.564 28.115-142.708z" data-original="#000000" class="active-path" data-old_color="#000000" fill="#FFFFFF"/></g> </svg>
