<?xml version="1.0" encoding="UTF-8"?>
<svg xmlns="http://www.w3.org/2000/svg" xmlns:xlink="http://www.w3.org/1999/xlink" width="32pt" height="32pt" viewBox="0 0 32 32" version="1.1">
<g id="surface9154117">
<path style=" stroke:none;fill-rule:nonzero;fill:rgb(0.784314%,80.784314%,67.843137%);fill-opacity:1;" d="M 9.546875 2 C 5.390625 2 2 5.390625 2 9.546875 C 2 10.671875 2.34375 11.703125 2.789062 12.664062 C 2.648438 13.421875 2.546875 14.195312 2.546875 15 C 2.546875 21.867188 8.132812 27.453125 15 27.453125 C 15.804688 27.453125 16.585938 27.359375 17.351562 27.210938 C 18.3125 27.648438 19.335938 28 20.460938 28 C 24.609375 28 28 24.609375 28 20.453125 C 28.007812 20.453125 28.007812 20.453125 28 20.445312 C 28 19.328125 27.65625 18.296875 27.21875 17.335938 C 27.359375 16.578125 27.460938 15.804688 27.460938 15 C 27.460938 8.132812 21.867188 2.546875 15 2.546875 C 14.203125 2.546875 13.421875 2.640625 12.65625 2.789062 C 11.695312 2.34375 10.664062 2 9.546875 2 Z M 9.546875 4 C 10.507812 4 11.398438 4.242188 12.1875 4.671875 C 12.390625 4.78125 12.632812 4.8125 12.859375 4.765625 C 13.554688 4.625 14.273438 4.546875 15 4.546875 C 20.789062 4.546875 25.460938 9.210938 25.460938 15 C 25.460938 15.734375 25.375 16.445312 25.234375 17.140625 C 25.1875 17.367188 25.21875 17.609375 25.335938 17.820312 C 25.757812 18.601562 26 19.5 26 20.453125 C 26 23.53125 23.53125 26 20.460938 26 C 19.5 26 18.601562 25.757812 17.820312 25.335938 C 17.609375 25.21875 17.367188 25.1875 17.140625 25.234375 C 16.445312 25.375 15.734375 25.453125 15 25.453125 C 9.210938 25.453125 4.546875 20.789062 4.546875 15 C 4.546875 14.265625 4.625 13.554688 4.765625 12.859375 C 4.8125 12.632812 4.773438 12.390625 4.664062 12.1875 C 4.242188 11.398438 4 10.507812 4 9.546875 C 4 6.46875 6.46875 4 9.546875 4 Z M 14.9375 8 C 12.304688 8 9.515625 9.117188 9.515625 12.085938 C 9.515625 13.515625 10.023438 15.039062 12.835938 15.742188 L 16.328125 16.609375 C 17.382812 16.875 17.648438 17.46875 17.648438 18.007812 C 17.648438 18.898438 16.765625 19.773438 15.15625 19.773438 C 12.015625 19.773438 12.453125 17.359375 10.773438 17.359375 C 10.015625 17.359375 9.46875 17.882812 9.46875 18.625 C 9.46875 20.070312 11.226562 22 15.15625 22 C 18.890625 22 20.75 20.195312 20.75 17.78125 C 20.75 16.226562 20.03125 14.570312 17.195312 13.9375 L 14.609375 13.367188 C 13.625 13.140625 12.492188 12.851562 12.492188 11.921875 C 12.492188 10.992188 13.289062 10.34375 14.71875 10.34375 C 17.609375 10.34375 17.351562 12.328125 18.78125 12.328125 C 19.539062 12.328125 20.195312 11.882812 20.195312 11.117188 C 20.195312 9.335938 17.351562 8 14.9375 8 Z M 14.9375 8 "/>
</g>
</svg>
