<svg width="29" height="32" xmlns="http://www.w3.org/2000/svg"><g fill="none" fill-rule="evenodd"><path d="M19.91 2.916c3.148 0 5.69 5.849 5.69 13.085 0 7.234-2.542 13.083-5.69 13.083-2.506 0-4.622-3.715-5.386-8.87a4.6 4.6 0 0 0 1.12.142c2.364 0 4.267-1.938 4.267-4.355 0-2.419-1.903-4.356-4.266-4.356a4.65 4.65 0 0 0-1.121.142c.764-5.156 2.88-8.87 5.387-8.87zm0 29.084c4.713 0 8.535-7.164 8.535-16S24.623 0 19.91 0C15.199 0 0 7.164 0 16s15.199 16 19.91 16z" fill="#FFF"/><path d="M-1 0h32v32H-1z"/></g></svg>