<svg id="Capa_1" enable-background="new 0 0 512 512" height="512" viewBox="0 0 512 512" width="512" xmlns="http://www.w3.org/2000/svg"><g><circle cx="256" cy="256" fill="#dbedff" r="256"/><path d="m60.78 256c0-131.1 98.552-239.166 225.61-254.196-9.968-1.18-20.105-1.804-30.39-1.804-141.385 0-256 114.615-256 256s114.615 256 256 256c10.285 0 20.422-.625 30.39-1.804-127.058-15.03-225.61-123.096-225.61-254.196z" fill="#b5dcff"/><circle cx="256.003" cy="255.887" fill="#f87c68" r="196.253"/><path d="m120.53 255.887c0-98.051 71.908-179.302 165.863-193.909-9.905-1.54-20.053-2.345-30.39-2.345-108.388 0-196.253 87.866-196.253 196.254s87.865 196.253 196.253 196.253c10.337 0 20.485-.805 30.39-2.344-93.956-14.607-165.863-95.858-165.863-193.909z" fill="#ec625e"/><circle cx="256.004" cy="255.89" fill="#dbedff" r="136.624"/><path d="m180.16 255.89c0-65.009 45.407-119.409 106.234-133.227-9.774-2.22-19.944-3.397-30.39-3.397-75.455 0-136.624 61.169-136.624 136.624s61.169 136.624 136.624 136.624c10.446 0 20.616-1.177 30.39-3.397-60.828-13.818-106.234-68.217-106.234-133.227z" fill="#b5dcff"/><circle cx="256.003" cy="255.887" fill="#f87c68" r="76.993"/><path d="m239.789 255.887c0-31.728 19.196-58.964 46.604-70.753-9.325-4.011-19.596-6.241-30.39-6.241-42.522 0-76.993 34.471-76.993 76.993s34.471 76.993 76.993 76.993c10.795 0 21.065-2.23 30.39-6.241-27.408-11.787-46.604-39.023-46.604-70.751z" fill="#ec625e"/><path d="m405.738 85.302 29.446-29.446-19.171-43.594c-1.665-3.786-6.609-4.729-9.521-1.817l-23.388 23.388z" fill="#f4dd45"/><path d="m383.104 33.834-20.953 20.953c-4.575 4.575-5.865 11.501-3.25 17.448l18.297 41.606 28.54-28.54z" fill="#fcc101"/><path d="m426.493 106.057 29.446-29.446 43.674 19.251c3.793 1.672 4.744 6.623 1.832 9.535l-23.388 23.388z" fill="#f4dd45"/><path d="m478.057 128.786-20.953 20.953c-4.575 4.575-11.508 5.858-17.467 3.231l-41.683-18.374 28.54-28.54z" fill="#fcc101"/><path d="m438.824 51.864-193.53 193.53c-5.855 5.855-5.855 15.348 0 21.203s15.348 5.855 21.203 0l193.53-193.53c5.855-5.855 5.855-15.348 0-21.203s-15.348-5.855-21.203 0z" fill="#477b9e"/><path d="m266.413 266.596c-5.855-5.855-5.855-15.348 0-21.203l193.53-193.53c.013-.014.028-.024.042-.038-5.858-5.814-15.32-5.803-21.161.038l-193.53 193.53c-5.855 5.855-5.855 15.348 0 21.203 5.842 5.842 15.303 5.853 21.161.038-.014-.013-.028-.024-.042-.038z" fill="#3f6d8e"/></g></svg>